# xmcd CD database file
#
# Track frame offsets:
#	150
#	13095
#	25128
#	36911
#	51475
#	62046
#	75971
#	89567
#	103581
#	117800
#	130084
#	143329
#	154745
#	167212
#	181638
#	192733
#	204571
#	216013
#	227284
#	237750
#
# Disc length: 3339 seconds
#
# Revision: 1
# Processed by: cddbd v1.5.2PL0 Copyright (c) Steve Scherf et al.
# Submitted via: CDex 1.51
#
DISCID=040d0914
DTITLE=Ray Charles - Just 'Ray' - CD2
DYEAR=1900
DGENRE=Blues
TTITLE0=I've Got A Woman
TTITLE1=Mess Around
TTITLE2=Roll With Me Baby
TTITLE3=Funny (But I Still Love You)
TTITLE4=All The Girls In Town
TTITLE5=Come Back Baby
TTITLE6=Baby Let Me Hold Your Hand
TTITLE7=Kissa Me Baby
TTITLE8=Walkin' and Talkin'
TTITLE9=It Should Have Been Me
TTITLE10=Don't You Know
TTITLE11=Here I Am (All Alone Again)
TTITLE12=Jumpin' In The Morning
TTITLE13=Losing Hand
TTITLE14=I'll Do Anything But Work
TTITLE15=The Sun's Gonna Shine
TTITLE16=What Have I Done
TTITLE17=Confession Blues
TTITLE18=I Wonder Who's Kissing Her Now
TTITLE19=Blues Before Sunrise
EXTD=
EXTT0=
EXTT1=
EXTT2=
EXTT3=
EXTT4=
EXTT5=
EXTT6=
EXTT7=
EXTT8=
EXTT9=
EXTT10=
EXTT11=
EXTT12=
EXTT13=
EXTT14=
EXTT15=
EXTT16=
EXTT17=
EXTT18=
EXTT19=
PLAYORDER=
